<svg viewBox="0 0 2353 1049.4" xmlns="http://www.w3.org/2000/svg">

	<path d="M1863.8,328.1c0,0,75.5,88.6,114.8,124.7c39.4,36.1,42.7,39.4,96.1,39.4h278.2V328.1c0,0-153.5,0-215.8,0s-62.3-23-62.3-23
		c53.4,0,100.8-77.8,100.8-157.5S2097.7,0,2035.3,0h-348.8v492.1h177.2V328.1z M1863.8,124.6h112.5c51.6,0,60.5,88.6,0,88.6h-112.5
		V124.6z" fill="#fff"/>
	<path d="M607,355.2c0-34.3,13.1-56.7-27.2-102.1l-61.4-72.7c-35.2-32.8,4.2-32.8,33.7-32.8h202.6v344.6h160.7V147.6H1132V0H430.7
		C345.4,0,303.6,81.9,306,124.6c2.4,42.7,10.2,96.3,81.1,160.8c64.7,58.8-32,42.7-41.7,42.7H0v164.1h479.9
		C535.7,492.1,607,440.5,607,355.2z" fill="#fff"/>
	<polygon points="558.7,554.5 509.5,718.6 460.2,554.5 269.9,554.5 227.2,718.6 181.3,554.5 0,554.5 145.2,1046.7 292.9,1046.7 
		364.2,813.7 427.4,1046.7 571.8,1046.7 716.2,554.5 " fill="#fff"/>
	<path d="M829,557.3l-145.3,492.1h161.7l26.3-68.9h170.6l25.3,68.9h158.4l-137.8-492.1H829z M907.8,862.4l55.8-180.5l52.5,180.5
		H907.8z" fill="#fff"/>
	<path d="M2353,702.2V554.5h-331.6c-85.3,0-122.2,85.5-119.8,128.2s10.2,96.3,81.1,160.8c64.7,58.8-32,42.7-41.7,42.7
		c0,0-151.6-0.2-191-0.2c-39.4,0-62.9-23.6-62.9-23.6c53.4,0,100.8-77.8,100.8-157.5c0-79.7-77.8-147.6-140.2-147.6h-348.8v492.1
		h177.2V885.2c0,0,75.5,88.6,114.8,124.7c39.4,36.1,42.7,39.4,96.1,39.4l387.7-2.6c55.8,0,140.2-51.6,140.2-136.9
		c0-34.3,0.6-53.3-39.7-98.7l-61.4-72.7c-35.2-32.8-3-36.3,26.5-36.3l0,0v0H2353z M1588.5,770.4h-112.5v-88.6h112.5
		C1640.1,681.8,1649,770.4,1588.5,770.4z" fill="#fff"/>
	<path d="M1466.7,492.1h158.4L1487.4,0h-259.2l-145.3,492.1h161.7l26.2-68.9h170.6L1466.7,492.1z M1306.9,305.1l55.8-180.5
		l52.5,180.5H1306.9z" fill="#fff"/>
</svg>
